<svg xmlns="http://www.w3.org/2000/svg" xmlns:xlink="http://www.w3.org/1999/xlink" width="500" zoomAndPan="magnify" viewBox="0 0 375 374.999991" height="500" preserveAspectRatio="xMidYMid meet" version="1.0"><defs><clipPath id="98baf278f7"><path d="M 7.785156 51.730469 L 367.214844 51.730469 L 367.214844 127.398438 L 7.785156 127.398438 Z M 7.785156 51.730469 " clip-rule="nonzero"/></clipPath><clipPath id="759768aba5"><path d="M 25.035156 51.730469 L 349.964844 51.730469 C 354.539062 51.730469 358.929688 53.546875 362.164062 56.78125 C 365.398438 60.015625 367.214844 64.40625 367.214844 68.980469 L 367.214844 110.148438 C 367.214844 114.722656 365.398438 119.113281 362.164062 122.347656 C 358.929688 125.582031 354.539062 127.398438 349.964844 127.398438 L 25.035156 127.398438 C 20.460938 127.398438 16.070312 125.582031 12.835938 122.347656 C 9.601562 119.113281 7.785156 114.722656 7.785156 110.148438 L 7.785156 68.980469 C 7.785156 64.40625 9.601562 60.015625 12.835938 56.78125 C 16.070312 53.546875 20.460938 51.730469 25.035156 51.730469 Z M 25.035156 51.730469 " clip-rule="nonzero"/></clipPath><clipPath id="945d38a962"><path d="M 7.785156 142.414062 L 367.378906 142.414062 L 367.378906 192.550781 L 7.785156 192.550781 Z M 7.785156 142.414062 " clip-rule="nonzero"/></clipPath><clipPath id="861ebd5bd5"><path d="M 25.035156 142.414062 L 349.964844 142.414062 C 354.539062 142.414062 358.929688 144.230469 362.164062 147.464844 C 365.398438 150.699219 367.214844 155.089844 367.214844 159.664062 L 367.214844 175.300781 C 367.214844 179.878906 365.398438 184.265625 362.164062 187.5 C 358.929688 190.734375 354.539062 192.550781 349.964844 192.550781 L 25.035156 192.550781 C 20.460938 192.550781 16.070312 190.734375 12.835938 187.5 C 9.601562 184.265625 7.785156 179.878906 7.785156 175.300781 L 7.785156 159.664062 C 7.785156 155.089844 9.601562 150.699219 12.835938 147.464844 C 16.070312 144.230469 20.460938 142.414062 25.035156 142.414062 Z M 25.035156 142.414062 " clip-rule="nonzero"/></clipPath><clipPath id="6f365d7902"><path d="M 7.785156 210.214844 L 367.214844 210.214844 L 367.214844 285.882812 L 7.785156 285.882812 Z M 7.785156 210.214844 " clip-rule="nonzero"/></clipPath><clipPath id="a755843079"><path d="M 25.035156 210.214844 L 349.964844 210.214844 C 354.539062 210.214844 358.929688 212.03125 362.164062 215.265625 C 365.398438 218.5 367.214844 222.890625 367.214844 227.464844 L 367.214844 268.632812 C 367.214844 273.207031 365.398438 277.597656 362.164062 280.832031 C 358.929688 284.066406 354.539062 285.882812 349.964844 285.882812 L 25.035156 285.882812 C 20.460938 285.882812 16.070312 284.066406 12.835938 280.832031 C 9.601562 277.597656 7.785156 273.207031 7.785156 268.632812 L 7.785156 227.464844 C 7.785156 222.890625 9.601562 218.5 12.835938 215.265625 C 16.070312 212.03125 20.460938 210.214844 25.035156 210.214844 Z M 25.035156 210.214844 " clip-rule="nonzero"/></clipPath></defs><rect x="-37.5" width="450" fill="#ffffff" y="-37.499999" height="449.999989" fill-opacity="1"/><rect x="-37.5" width="450" fill="#ffffff" y="-37.499999" height="449.999989" fill-opacity="1"/><g clip-path="url(#98baf278f7)"><g clip-path="url(#759768aba5)"><path fill="#400d51" d="M 7.785156 51.730469 L 367.214844 51.730469 L 367.214844 127.398438 L 7.785156 127.398438 Z M 7.785156 51.730469 " fill-opacity="1" fill-rule="nonzero"/></g></g><g clip-path="url(#945d38a962)"><g clip-path="url(#861ebd5bd5)"><path fill="#400d51" d="M 7.785156 142.414062 L 367.183594 142.414062 L 367.183594 192.550781 L 7.785156 192.550781 Z M 7.785156 142.414062 " fill-opacity="1" fill-rule="nonzero"/></g></g><g clip-path="url(#6f365d7902)"><g clip-path="url(#a755843079)"><path fill="#400d51" d="M 7.785156 210.214844 L 367.214844 210.214844 L 367.214844 285.882812 L 7.785156 285.882812 Z M 7.785156 210.214844 " fill-opacity="1" fill-rule="nonzero"/></g></g></svg>